<svg width="44" height="44" viewBox="0 0 44 44" fill="none" xmlns="http://www.w3.org/2000/svg">
<path d="M36.6667 5.5L33.9944 35.1966L21.9821 38.5L10.0029 35.2012L7.33337 5.5H36.6667Z" fill="#264DE4"/>
<path d="M31.6412 33.2861L33.9451 8.0603H21.8489V35.9396L31.6412 33.2861Z" fill="#2965F1"/>
<path d="M13.3815 18.8708L13.7075 22.5691H21.8488V18.8708H13.3815Z" fill="#EBEBEB"/>
<path d="M22.1512 11.4739H22.1383H12.7766L13.1165 15.1722H22.1512V11.4739Z" fill="#EBEBEB"/>
<path d="M21.8487 32.2367V28.5003L21.833 28.5045L17.8403 27.4245L17.5851 24.5603H15.6449H13.9862L14.4885 30.1991L21.8322 32.2413L21.8487 32.2367Z" fill="#EBEBEB"/>
<path d="M26.4571 22.5648L26.0227 27.3214L21.8489 28.4254V32.2411L29.5208 30.1573L29.5771 29.5377L30.4565 19.8821L30.5478 18.8972L31.2234 11.4739H21.8489V15.1415H27.1222L26.7817 18.8972H21.8489V22.5648H26.4571Z" fill="white"/>
</svg>
