<svg width="44" height="44" viewBox="0 0 44 44" fill="none" xmlns="http://www.w3.org/2000/svg">
<g clip-path="url(#clip0)">
<path d="M38.3333 3.66675H5.66663C4.56206 3.66675 3.66663 4.56218 3.66663 5.66675V38.3334C3.66663 39.438 4.56206 40.3334 5.66663 40.3334H38.3333C39.4379 40.3334 40.3333 39.438 40.3333 38.3334V5.66675C40.3333 4.56218 39.4379 3.66675 38.3333 3.66675Z" fill="#F7DF1E"/>
<path d="M28.2973 32.3128C29.0359 33.5187 29.9968 34.4051 31.6963 34.4051C33.1239 34.4051 34.0359 33.6916 34.0359 32.7056C34.0359 31.5242 33.0989 31.1057 31.5275 30.4183L30.6661 30.0488C28.1798 28.9895 26.528 27.6625 26.528 24.8572C26.528 22.2731 28.497 20.3059 31.574 20.3059C33.7647 20.3059 35.3396 21.0683 36.4746 23.0646L33.7915 24.7874C33.2008 23.7281 32.5635 23.3108 31.574 23.3108C30.5648 23.3108 29.9252 23.951 29.9252 24.7874C29.9252 25.821 30.5654 26.2395 32.0437 26.8797L32.9051 27.2487C35.8326 28.5041 37.4855 29.7839 37.4855 32.6614C37.4855 35.7635 35.0486 37.463 31.776 37.463C28.5761 37.463 26.5088 35.9381 25.4973 33.9395L28.2973 32.3128ZM16.1258 32.6114C16.667 33.5717 17.1594 34.3836 18.3432 34.3836C19.4752 34.3836 20.1893 33.9407 20.1893 32.2185V20.5026H23.6348V32.2651C23.6348 35.8328 21.5431 37.4566 18.4899 37.4566C15.7311 37.4566 14.1335 36.0289 13.321 34.3094L16.1258 32.6114Z" fill="black"/>
</g>
<defs>
<clipPath id="clip0">
<rect width="36.6667" height="36.6667" fill="white" transform="translate(3.66663 3.66675)"/>
</clipPath>
</defs>
</svg>
