<svg width="44" height="44" viewBox="0 0 44 44" fill="none" xmlns="http://www.w3.org/2000/svg">
<path d="M21.8035 5.50027C20.4428 5.50652 19.1433 5.62131 17.9999 5.82142C14.6316 6.40999 14.0201 7.64191 14.0201 9.91379V12.9142H21.9798V13.9144H14.0201H11.0328C8.71953 13.9144 6.69393 15.2896 6.06034 17.9058C5.32951 20.9046 5.2971 22.7759 6.06034 25.9071C6.62615 28.2378 7.97737 29.8985 10.2907 29.8985H13.0274V26.3016C13.0274 23.7031 15.3006 21.411 17.9999 21.411H25.9504C28.1635 21.411 29.9302 19.6087 29.9302 17.4103V9.91379C29.9302 7.78023 28.1104 6.1775 25.9504 5.82142C24.583 5.59629 23.1642 5.49402 21.8035 5.50027ZM17.499 7.91348C18.3211 7.91348 18.9926 8.58842 18.9926 9.4183C18.9926 10.2452 18.3211 10.9139 17.499 10.9139C16.6738 10.9139 16.0054 10.2452 16.0054 9.4183C16.0053 8.58842 16.6738 7.91348 17.499 7.91348Z" fill="#5A9FD4"/>
<path d="M30.9228 13.9144V17.4104C30.9228 20.1207 28.5996 22.402 25.9503 22.402H17.9999C15.8221 22.402 14.02 24.2455 14.02 26.4026V33.8991C14.02 36.0327 15.8958 37.2876 17.9999 37.8997C20.5195 38.6325 22.9356 38.7649 25.9503 37.8997C27.9542 37.3259 29.9302 36.171 29.9302 33.8991V30.8987H21.9797V29.8985H29.9302H33.91C36.2233 29.8985 37.0854 28.3026 37.8899 25.9071C38.7209 23.441 38.6856 21.0694 37.8899 17.9059C37.3182 15.6281 36.2263 13.9144 33.91 13.9144H30.9228ZM26.4513 32.899C27.2764 32.899 27.9449 33.5677 27.9449 34.3946C27.9449 35.2245 27.2764 35.8994 26.4513 35.8994C25.6291 35.8994 24.9577 35.2245 24.9577 34.3946C24.9577 33.5677 25.6291 32.899 26.4513 32.899Z" fill="#FFD43B"/>
</svg>
