<svg width="44" height="44" viewBox="0 0 44 44" fill="none" xmlns="http://www.w3.org/2000/svg">
<path d="M40.3333 22.0038C40.3333 19.549 37.2914 17.2226 32.6278 15.7799C33.704 10.9761 33.2257 7.15415 31.118 5.93053C30.6322 5.64351 30.0642 5.50755 29.4439 5.50755V7.19192C29.7877 7.19192 30.0642 7.2599 30.2959 7.3883C31.3124 7.97745 31.7533 10.2208 31.4095 13.1061C31.3273 13.8161 31.1928 14.5639 31.0284 15.3267C29.5635 14.9642 27.9641 14.6847 26.2825 14.5034C25.2735 13.1061 24.2272 11.8371 23.1734 10.7268C25.6098 8.4382 27.8968 7.18437 29.4514 7.18437V5.5C27.3961 5.5 24.7055 6.98043 21.985 9.54852C19.2645 6.99554 16.574 5.53021 14.5186 5.53021V7.21458C16.0657 7.21458 18.3602 8.46086 20.7967 10.7344C19.7503 11.8447 18.704 13.1061 17.71 14.5034C16.0209 14.6847 14.4215 14.9642 12.9566 15.3343C12.7847 14.579 12.6577 13.8463 12.568 13.1439C12.2167 10.2585 12.6502 8.01522 13.6592 7.41852C13.8834 7.28256 14.1748 7.22213 14.5186 7.22213V5.53777C13.8908 5.53777 13.3228 5.67372 12.8296 5.96075C10.7294 7.18437 10.2586 10.9987 11.3423 15.7875C6.69353 17.2377 3.66663 19.5565 3.66663 22.0038C3.66663 24.4586 6.70848 26.785 11.3722 28.2276C10.2959 33.0315 10.7743 36.8534 12.8819 38.077C13.3677 38.364 13.9357 38.5 14.5635 38.5C16.6188 38.5 19.3094 37.0196 22.0299 34.4515C24.7503 37.0045 27.4409 38.4698 29.4962 38.4698C30.124 38.4698 30.692 38.3338 31.1853 38.0468C33.2855 36.8232 33.7563 33.0088 32.6726 28.2201C37.3064 26.7774 40.3333 24.451 40.3333 22.0038ZM30.6024 16.9658C30.3258 17.9401 29.982 18.9447 29.5934 19.9493C29.287 19.345 28.9656 18.7408 28.6143 18.1365C28.2705 17.5323 27.9043 16.9431 27.5381 16.3691C28.5994 16.5277 29.6233 16.7241 30.6024 16.9658ZM27.1793 25.01C26.5964 26.0296 25.9985 26.9965 25.3781 27.8953C24.2645 27.9935 23.136 28.0463 22 28.0463C20.8714 28.0463 19.7429 27.9935 18.6367 27.9028C18.0164 27.004 17.411 26.0447 16.8281 25.0326C16.26 24.0431 15.7444 23.0386 15.2735 22.0264C15.7369 21.0143 16.2601 20.0022 16.8206 19.0127C17.4035 17.993 18.0015 17.0262 18.6218 16.1274C19.7354 16.0292 20.8639 15.9763 22 15.9763C23.1285 15.9763 24.2571 16.0292 25.3632 16.1198C25.9835 17.0187 26.5889 17.9779 27.1719 18.99C27.7399 19.9795 28.2556 20.9841 28.7264 21.9962C28.2556 23.0084 27.7399 24.0205 27.1793 25.01ZM29.5934 24.028C29.997 25.0402 30.3408 26.0523 30.6248 27.0342C29.6457 27.2759 28.6143 27.4799 27.5456 27.6385C27.9118 27.0569 28.278 26.4602 28.6218 25.8484C28.9656 25.2441 29.287 24.6323 29.5934 24.028ZM22.0149 32.0873C21.3198 31.3622 20.6248 30.554 19.9372 29.6703C20.6098 29.7005 21.2974 29.7232 21.9925 29.7232C22.695 29.7232 23.3901 29.7081 24.0702 29.6703C23.3976 30.554 22.7025 31.3622 22.0149 32.0873ZM16.4544 27.6385C15.3931 27.4799 14.3692 27.2835 13.3901 27.0418C13.6666 26.0674 14.0104 25.0628 14.3991 24.0583C14.7055 24.6625 15.0269 25.2668 15.3781 25.871C15.7294 26.4753 16.0882 27.0644 16.4544 27.6385ZM21.9775 11.9202C22.6726 12.6453 23.3677 13.4535 24.0553 14.3373C23.3826 14.307 22.695 14.2844 22 14.2844C21.2974 14.2844 20.6024 14.2995 19.9222 14.3373C20.5949 13.4535 21.2899 12.6453 21.9775 11.9202ZM16.4469 16.3691C16.0807 16.9507 15.7145 17.5474 15.3707 18.1592C15.0269 18.7634 14.7055 19.3677 14.3991 19.972C13.9955 18.9598 13.6517 17.9477 13.3677 16.9658C14.3467 16.7316 15.3781 16.5277 16.4469 16.3691ZM9.68307 25.8257C7.03733 24.6852 5.32582 23.1896 5.32582 22.0038C5.32582 20.8179 7.03733 19.3148 9.68307 18.1818C10.3258 17.9024 11.0284 17.6531 11.7533 17.419C12.1793 18.8994 12.7399 20.4403 13.4349 22.0189C12.7473 23.59 12.1943 25.1233 11.7757 26.5961C11.0358 26.362 10.3333 26.1052 9.68307 25.8257ZM13.704 36.6192C12.6876 36.0301 12.2466 33.7868 12.5904 30.9015C12.6726 30.1915 12.8071 29.4437 12.9716 28.6808C14.4364 29.0434 16.0358 29.3228 17.7175 29.5041C18.7264 30.9015 19.7728 32.1704 20.8266 33.2807C18.3901 35.5693 16.1031 36.8232 14.5485 36.8232C14.2122 36.8156 13.9282 36.7477 13.704 36.6192ZM31.4319 30.8637C31.7832 33.749 31.3497 35.9923 30.3408 36.589C30.1166 36.725 29.8251 36.7854 29.4813 36.7854C27.9342 36.7854 25.6397 35.5391 23.2033 33.2656C24.2496 32.1553 25.2959 30.8939 26.2899 29.4966C27.979 29.3153 29.5784 29.0358 31.0433 28.6657C31.2152 29.4286 31.3497 30.1612 31.4319 30.8637ZM34.3094 25.8257C33.6666 26.1052 32.9641 26.3544 32.2391 26.5886C31.8131 25.1081 31.2526 23.5673 30.5575 21.9887C31.2451 20.4176 31.7982 18.8843 32.2167 17.4114C32.9566 17.6456 33.6592 17.9024 34.3169 18.1818C36.9626 19.3224 38.6741 20.8179 38.6741 22.0038C38.6666 23.1896 36.9551 24.6927 34.3094 25.8257Z" fill="#62D2F0"/>
<path d="M21.9923 25.4554C23.8787 25.4554 25.4079 23.91 25.4079 22.0036C25.4079 20.0972 23.8787 18.5518 21.9923 18.5518C20.106 18.5518 18.5768 20.0972 18.5768 22.0036C18.5768 23.91 20.106 25.4554 21.9923 25.4554Z" fill="#62D2F0"/>
</svg>
